<svg width="640" height="73" viewBox="0 0 640 73" fill="none" xmlns="http://www.w3.org/2000/svg">
<g clip-path="url(#clip0_17_46)">
<path d="M301.425 31.92C300.865 30.8933 300.095 30.1117 299.115 29.575C298.135 29.0383 296.992 28.77 295.685 28.77C294.238 28.77 292.955 29.0967 291.835 29.75C290.715 30.4033 289.84 31.3367 289.21 32.55C288.58 33.7633 288.265 35.1633 288.265 36.75C288.265 38.3833 288.58 39.8067 289.21 41.02C289.863 42.2333 290.762 43.1667 291.905 43.82C293.048 44.4733 294.378 44.8 295.895 44.8C297.762 44.8 299.29 44.31 300.48 43.33C301.67 42.3267 302.452 40.9383 302.825 39.165H294.425V35.42H307.655V39.69C307.328 41.3933 306.628 42.9683 305.555 44.415C304.482 45.8617 303.093 47.0283 301.39 47.915C299.71 48.7783 297.82 49.21 295.72 49.21C293.363 49.21 291.228 48.685 289.315 47.635C287.425 46.5617 285.932 45.08 284.835 43.19C283.762 41.3 283.225 39.1533 283.225 36.75C283.225 34.3467 283.762 32.2 284.835 30.31C285.932 28.3967 287.425 26.915 289.315 25.865C291.228 24.7917 293.352 24.255 295.685 24.255C298.438 24.255 300.83 24.9317 302.86 26.285C304.89 27.615 306.29 29.4933 307.06 31.92H301.425ZM316.18 32.62C316.81 31.5933 317.627 30.7883 318.63 30.205C319.657 29.6217 320.824 29.33 322.13 29.33V34.475H320.835C319.295 34.475 318.129 34.8367 317.335 35.56C316.565 36.2833 316.18 37.5433 316.18 39.34V49H311.28V29.61H316.18V32.62ZM324.171 39.235C324.171 37.275 324.556 35.5367 325.326 34.02C326.119 32.5033 327.181 31.3367 328.511 30.52C329.864 29.7033 331.369 29.295 333.026 29.295C334.472 29.295 335.732 29.5867 336.806 30.17C337.902 30.7533 338.777 31.4883 339.431 32.375V29.61H344.366V49H339.431V46.165C338.801 47.075 337.926 47.8333 336.806 48.44C335.709 49.0233 334.437 49.315 332.991 49.315C331.357 49.315 329.864 48.895 328.511 48.055C327.181 47.215 326.119 46.0367 325.326 44.52C324.556 42.98 324.171 41.2183 324.171 39.235ZM339.431 39.305C339.431 38.115 339.197 37.1 338.731 36.26C338.264 35.3967 337.634 34.7433 336.841 34.3C336.047 33.8333 335.196 33.6 334.286 33.6C333.376 33.6 332.536 33.8217 331.766 34.265C330.996 34.7083 330.366 35.3617 329.876 36.225C329.409 37.065 329.176 38.0683 329.176 39.235C329.176 40.4017 329.409 41.4283 329.876 42.315C330.366 43.1783 330.996 43.8433 331.766 44.31C332.559 44.7767 333.399 45.01 334.286 45.01C335.196 45.01 336.047 44.7883 336.841 44.345C337.634 43.8783 338.264 43.225 338.731 42.385C339.197 41.5217 339.431 40.495 339.431 39.305ZM354.051 32.41C354.681 31.5233 355.545 30.7883 356.641 30.205C357.761 29.5983 359.033 29.295 360.456 29.295C362.113 29.295 363.606 29.7033 364.936 30.52C366.29 31.3367 367.351 32.5033 368.121 34.02C368.915 35.5133 369.311 37.2517 369.311 39.235C369.311 41.2183 368.915 42.98 368.121 44.52C367.351 46.0367 366.29 47.215 364.936 48.055C363.606 48.895 362.113 49.315 360.456 49.315C359.033 49.315 357.773 49.0233 356.676 48.44C355.603 47.8567 354.728 47.1217 354.051 46.235V58.24H349.151V29.61H354.051V32.41ZM364.306 39.235C364.306 38.0683 364.061 37.065 363.571 36.225C363.105 35.3617 362.475 34.7083 361.681 34.265C360.911 33.8217 360.071 33.6 359.161 33.6C358.275 33.6 357.435 33.8333 356.641 34.3C355.871 34.7433 355.241 35.3967 354.751 36.26C354.285 37.1233 354.051 38.1383 354.051 39.305C354.051 40.4717 354.285 41.4867 354.751 42.35C355.241 43.2133 355.871 43.8783 356.641 44.345C357.435 44.7883 358.275 45.01 359.161 45.01C360.071 45.01 360.911 44.7767 361.681 44.31C362.475 43.8433 363.105 43.1783 363.571 42.315C364.061 41.4517 364.306 40.425 364.306 39.235ZM383.792 29.33C385.262 29.33 386.569 29.6567 387.712 30.31C388.855 30.94 389.742 31.885 390.372 33.145C391.025 34.3817 391.352 35.875 391.352 37.625V49H386.452V38.29C386.452 36.75 386.067 35.5717 385.297 34.755C384.527 33.915 383.477 33.495 382.147 33.495C380.794 33.495 379.72 33.915 378.927 34.755C378.157 35.5717 377.772 36.75 377.772 38.29V49H372.872V23.1H377.772V32.025C378.402 31.185 379.242 30.5317 380.292 30.065C381.342 29.575 382.509 29.33 383.792 29.33ZM398.497 27.3C397.633 27.3 396.91 27.0317 396.327 26.495C395.767 25.935 395.487 25.2467 395.487 24.43C395.487 23.6133 395.767 22.9367 396.327 22.4C396.91 21.84 397.633 21.56 398.497 21.56C399.36 21.56 400.072 21.84 400.632 22.4C401.215 22.9367 401.507 23.6133 401.507 24.43C401.507 25.2467 401.215 25.935 400.632 26.495C400.072 27.0317 399.36 27.3 398.497 27.3ZM400.912 29.61V49H396.012V29.61H400.912ZM404.493 39.305C404.493 37.2983 404.901 35.5483 405.718 34.055C406.535 32.5383 407.666 31.3717 409.113 30.555C410.56 29.715 412.216 29.295 414.083 29.295C416.486 29.295 418.47 29.9017 420.033 31.115C421.62 32.305 422.681 33.985 423.218 36.155H417.933C417.653 35.315 417.175 34.6617 416.498 34.195C415.845 33.705 415.028 33.46 414.048 33.46C412.648 33.46 411.54 33.9733 410.723 35C409.906 36.0033 409.498 37.4383 409.498 39.305C409.498 41.1483 409.906 42.5833 410.723 43.61C411.54 44.6133 412.648 45.115 414.048 45.115C416.031 45.115 417.326 44.2283 417.933 42.455H423.218C422.681 44.555 421.62 46.2233 420.033 47.46C418.446 48.6967 416.463 49.315 414.083 49.315C412.216 49.315 410.56 48.9067 409.113 48.09C407.666 47.25 406.535 46.0833 405.718 44.59C404.901 43.0733 404.493 41.3117 404.493 39.305ZM443.687 24.57C446.254 24.57 448.506 25.0717 450.442 26.075C452.402 27.0783 453.907 28.5133 454.957 30.38C456.031 32.2233 456.567 34.37 456.567 36.82C456.567 39.27 456.031 41.4167 454.957 43.26C453.907 45.08 452.402 46.4917 450.442 47.495C448.506 48.4983 446.254 49 443.687 49H435.147V24.57H443.687ZM443.512 44.835C446.079 44.835 448.062 44.135 449.462 42.735C450.862 41.335 451.562 39.3633 451.562 36.82C451.562 34.2767 450.862 32.2933 449.462 30.87C448.062 29.4233 446.079 28.7 443.512 28.7H440.047V44.835H443.512ZM478.26 38.885C478.26 39.585 478.214 40.215 478.12 40.775H463.945C464.062 42.175 464.552 43.2717 465.415 44.065C466.279 44.8583 467.34 45.255 468.6 45.255C470.42 45.255 471.715 44.4733 472.485 42.91H477.77C477.21 44.7767 476.137 46.3167 474.55 47.53C472.964 48.72 471.015 49.315 468.705 49.315C466.839 49.315 465.159 48.9067 463.665 48.09C462.195 47.25 461.04 46.0717 460.2 44.555C459.384 43.0383 458.975 41.2883 458.975 39.305C458.975 37.2983 459.384 35.5367 460.2 34.02C461.017 32.5033 462.16 31.3367 463.63 30.52C465.1 29.7033 466.792 29.295 468.705 29.295C470.549 29.295 472.194 29.6917 473.64 30.485C475.11 31.2783 476.242 32.41 477.035 33.88C477.852 35.3267 478.26 36.995 478.26 38.885ZM473.185 37.485C473.162 36.225 472.707 35.2217 471.82 34.475C470.934 33.705 469.849 33.32 468.565 33.32C467.352 33.32 466.325 33.6933 465.485 34.44C464.669 35.1633 464.167 36.1783 463.98 37.485H473.185ZM489.257 49.315C487.67 49.315 486.247 49.035 484.987 48.475C483.727 47.8917 482.724 47.11 481.977 46.13C481.254 45.15 480.857 44.065 480.787 42.875H485.722C485.815 43.6217 486.177 44.24 486.807 44.73C487.46 45.22 488.265 45.465 489.222 45.465C490.155 45.465 490.879 45.2783 491.392 44.905C491.929 44.5317 492.197 44.0533 492.197 43.47C492.197 42.84 491.87 42.3733 491.217 42.07C490.587 41.7433 489.572 41.3933 488.172 41.02C486.725 40.67 485.535 40.3083 484.602 39.935C483.692 39.5617 482.899 38.99 482.222 38.22C481.569 37.45 481.242 36.4117 481.242 35.105C481.242 34.0317 481.545 33.0517 482.152 32.165C482.782 31.2783 483.669 30.5783 484.812 30.065C485.979 29.5517 487.344 29.295 488.907 29.295C491.217 29.295 493.06 29.8783 494.437 31.045C495.814 32.1883 496.572 33.74 496.712 35.7H492.022C491.952 34.93 491.625 34.3233 491.042 33.88C490.482 33.4133 489.724 33.18 488.767 33.18C487.88 33.18 487.192 33.3433 486.702 33.67C486.235 33.9967 486.002 34.4517 486.002 35.035C486.002 35.6883 486.329 36.19 486.982 36.54C487.635 36.8667 488.65 37.205 490.027 37.555C491.427 37.905 492.582 38.2667 493.492 38.64C494.402 39.0133 495.184 39.5967 495.837 40.39C496.514 41.16 496.864 42.1867 496.887 43.47C496.887 44.59 496.572 45.5933 495.942 46.48C495.335 47.3667 494.449 48.0667 493.282 48.58C492.139 49.07 490.797 49.315 489.257 49.315ZM503.394 27.3C502.531 27.3 501.807 27.0317 501.224 26.495C500.664 25.935 500.384 25.2467 500.384 24.43C500.384 23.6133 500.664 22.9367 501.224 22.4C501.807 21.84 502.531 21.56 503.394 21.56C504.257 21.56 504.969 21.84 505.529 22.4C506.112 22.9367 506.404 23.6133 506.404 24.43C506.404 25.2467 506.112 25.935 505.529 26.495C504.969 27.0317 504.257 27.3 503.394 27.3ZM505.809 29.61V49H500.909V29.61H505.809ZM518.245 29.295C519.692 29.295 520.964 29.5867 522.06 30.17C523.157 30.73 524.02 31.465 524.65 32.375V29.61H529.585V49.14C529.585 50.9367 529.224 52.535 528.5 53.935C527.777 55.3583 526.692 56.4783 525.245 57.295C523.799 58.135 522.049 58.555 519.995 58.555C517.242 58.555 514.979 57.9133 513.205 56.63C511.455 55.3467 510.464 53.5967 510.23 51.38H515.095C515.352 52.2667 515.9 52.9667 516.74 53.48C517.604 54.0167 518.642 54.285 519.855 54.285C521.279 54.285 522.434 53.8533 523.32 52.99C524.207 52.15 524.65 50.8667 524.65 49.14V46.13C524.02 47.04 523.145 47.7983 522.025 48.405C520.929 49.0117 519.669 49.315 518.245 49.315C516.612 49.315 515.119 48.895 513.765 48.055C512.412 47.215 511.339 46.0367 510.545 44.52C509.775 42.98 509.39 41.2183 509.39 39.235C509.39 37.275 509.775 35.5367 510.545 34.02C511.339 32.5033 512.4 31.3367 513.73 30.52C515.084 29.7033 516.589 29.295 518.245 29.295ZM524.65 39.305C524.65 38.115 524.417 37.1 523.95 36.26C523.484 35.3967 522.854 34.7433 522.06 34.3C521.267 33.8333 520.415 33.6 519.505 33.6C518.595 33.6 517.755 33.8217 516.985 34.265C516.215 34.7083 515.585 35.3617 515.095 36.225C514.629 37.065 514.395 38.0683 514.395 39.235C514.395 40.4017 514.629 41.4283 515.095 42.315C515.585 43.1783 516.215 43.8433 516.985 44.31C517.779 44.7767 518.619 45.01 519.505 45.01C520.415 45.01 521.267 44.7883 522.06 44.345C522.854 43.8783 523.484 43.225 523.95 42.385C524.417 41.5217 524.65 40.495 524.65 39.305ZM545.116 29.33C547.426 29.33 549.293 30.065 550.716 31.535C552.139 32.9817 552.851 35.0117 552.851 37.625V49H547.951V38.29C547.951 36.75 547.566 35.5717 546.796 34.755C546.026 33.915 544.976 33.495 543.646 33.495C542.293 33.495 541.219 33.915 540.426 34.755C539.656 35.5717 539.271 36.75 539.271 38.29V49H534.371V29.61H539.271V32.025C539.924 31.185 540.753 30.5317 541.756 30.065C542.783 29.575 543.903 29.33 545.116 29.33ZM575.536 38.885C575.536 39.585 575.489 40.215 575.396 40.775H561.221C561.337 42.175 561.827 43.2717 562.691 44.065C563.554 44.8583 564.616 45.255 565.876 45.255C567.696 45.255 568.991 44.4733 569.761 42.91H575.046C574.486 44.7767 573.412 46.3167 571.826 47.53C570.239 48.72 568.291 49.315 565.981 49.315C564.114 49.315 562.434 48.9067 560.941 48.09C559.471 47.25 558.316 46.0717 557.476 44.555C556.659 43.0383 556.251 41.2883 556.251 39.305C556.251 37.2983 556.659 35.5367 557.476 34.02C558.292 32.5033 559.436 31.3367 560.906 30.52C562.376 29.7033 564.067 29.295 565.981 29.295C567.824 29.295 569.469 29.6917 570.916 30.485C572.386 31.2783 573.517 32.41 574.311 33.88C575.127 35.3267 575.536 36.995 575.536 38.885ZM570.461 37.485C570.437 36.225 569.982 35.2217 569.096 34.475C568.209 33.705 567.124 33.32 565.841 33.32C564.627 33.32 563.601 33.6933 562.761 34.44C561.944 35.1633 561.442 36.1783 561.256 37.485H570.461ZM584.012 32.62C584.642 31.5933 585.459 30.7883 586.462 30.205C587.489 29.6217 588.656 29.33 589.962 29.33V34.475H588.667C587.127 34.475 585.961 34.8367 585.167 35.56C584.397 36.2833 584.012 37.5433 584.012 39.34V49H579.112V29.61H584.012V32.62Z" fill="#F6A5CC"/>
</g>
<defs>
<clipPath id="clip0_17_46">
<rect width="640" height="73" fill="white"/>
</clipPath>
</defs>
</svg>
