<svg width="169" height="169" viewBox="0 0 169 169" fill="none" xmlns="http://www.w3.org/2000/svg">
<path d="M84.3293 77.3023C90.1511 77.3023 94.8705 72.5828 94.8705 66.7611C94.8705 60.9393 90.1511 56.2198 84.3293 56.2198C78.5076 56.2198 73.7881 60.9393 73.7881 66.7611C73.7881 72.5828 78.5076 77.3023 84.3293 77.3023Z" fill="#FFE5F2"/>
<path d="M94.5 31C82.7746 30.9994 71.5227 35.4083 63.19 43.2684C54.8573 51.1284 50.1173 61.8044 50 72.9759C50 102.02 89.2156 134.35 90.8844 135.728C91.8919 136.549 93.1742 137 94.5 137C95.8258 137 97.1081 136.549 98.1156 135.728C100.062 134.35 139 102.02 139 72.9759C138.883 61.8044 134.143 51.1284 125.81 43.2684C117.477 35.4083 106.225 30.9994 94.5 31ZM94.5 89.2998C90.6494 89.2998 86.8854 88.2119 83.6837 86.1736C80.4821 84.1353 77.9868 81.2382 76.5132 77.8486C75.0397 74.4591 74.6541 70.7293 75.4053 67.131C76.1565 63.5326 78.0108 60.2273 80.7335 57.6331C83.4563 55.0388 86.9253 53.2721 90.7018 52.5564C94.4784 51.8406 98.3929 52.208 101.95 53.612C105.508 55.016 108.548 57.3936 110.688 60.4441C112.827 63.4946 113.969 67.081 113.969 70.7499C113.969 75.6696 111.918 80.3879 108.266 83.8667C104.615 87.3454 99.6634 89.2998 94.5 89.2998Z" fill="#FFE5F2"/>
</svg>
